<?xml version="1.0" encoding="UTF-8" standalone="no"?>
<!DOCTYPE svg PUBLIC "-//W3C//DTD SVG 1.1//EN" "http://www.w3.org/Graphics/SVG/1.1/DTD/svg11.dtd">
<svg version="1.1" xmlns="http://www.w3.org/2000/svg" xmlns:xlink="http://www.w3.org/1999/xlink" preserveAspectRatio="xMidYMid meet" viewBox="88.87966804979251 72.65560165975103 24 24" width="24" height="24"><defs><path d="M108.41 76.73L108.66 76.81L108.89 76.93L109.1 77.07L109.3 77.24L109.46 77.44L109.61 77.65L109.72 77.88L109.81 78.13L109.86 78.39L109.88 78.66L109.88 90.66L109.86 90.93L109.81 91.19L109.72 91.43L109.61 91.66L109.46 91.88L109.29 92.07L109.1 92.24L108.89 92.38L108.66 92.5L108.41 92.58L108.15 92.64L107.88 92.66L93.88 92.66L93.61 92.64L93.35 92.58L93.1 92.5L92.87 92.38L92.66 92.24L92.46 92.07L92.29 91.88L92.15 91.66L92.04 91.43L91.95 91.19L91.9 90.93L91.88 90.66L91.88 78.66L91.9 78.39L91.95 78.13L92.04 77.88L92.15 77.65L92.29 77.44L92.46 77.24L92.66 77.07L92.87 76.93L93.1 76.81L93.35 76.73L93.61 76.67L93.88 76.66L107.88 76.66L108.15 76.67L108.41 76.73ZM93.88 90.66L107.88 90.66L107.88 80.66L93.88 80.66L93.88 90.66Z" id="hFhSA6gL8"></path><path d="M88.88 72.66L112.88 72.66L112.88 96.66L88.88 96.66L88.88 72.66Z" id="a21JS0w1a"></path><path d="M96.45 85.15L96.45 85.61L99.64 86.85L100.87 90.04L101.33 90.04L104.85 81.64L96.45 85.15Z" id="dJg08fT2c"></path></defs><g><g><use xlink:href="#hFhSA6gL8" opacity="1" fill="#333333" fill-opacity="1"></use><g><use xlink:href="#hFhSA6gL8" opacity="1" fill-opacity="0" stroke="#000000" stroke-width="1" stroke-opacity="0"></use></g></g><g><use xlink:href="#a21JS0w1a" opacity="1" fill="#000000" fill-opacity="0"></use><g><use xlink:href="#a21JS0w1a" opacity="1" fill-opacity="0" stroke="#000000" stroke-width="1" stroke-opacity="0"></use></g></g><g><use xlink:href="#dJg08fT2c" opacity="1" fill="#0099ff" fill-opacity="1"></use><g><use xlink:href="#dJg08fT2c" opacity="1" fill-opacity="0" stroke="#000000" stroke-width="1" stroke-opacity="0"></use></g></g></g></svg>